<svg viewBox="0 0 180 180" xmlns="http://www.w3.org/2000/svg">
  <defs>
    <linearGradient id="color-18414919907" x1="0" y1="0.5" x2="1" y2="0.5">
      <stop offset="0" stop-color="#00968f"/>
      <stop offset="1" stop-color="#00fff4"/>
    </linearGradient>
  </defs>
  <g fill-rule="evenodd" fill="url(#color-18414919907)">
    <path d="m95.353,85.29l17.128,-67.873l-87.57,76.436l59.736,0l-17.128,68.73l89.711,-77.294l-61.877,0.001zm-47.746,0l49.672,-43.465l-10.919,43.464l-38.753,0.001zm34.685,53.312l10.92,-44.749l40.894,0l-51.814,44.749z" />
    <path d="m62.316,24.469c-8.509,3.599 -16.045,8.679 -22.606,15.24c-6.561,6.562 -11.642,14.097 -15.24,22.606c-3.727,8.812 -5.591,18.04 -5.591,27.684c0,9.645 1.864,18.874 5.59,27.685c3.6,8.51 8.68,16.045 15.241,22.606s14.097,11.641 22.606,15.24c0.745,0.316 1.494,0.618 2.246,0.907l0.136,-0.543l1.198,-4.809c-0.484,-0.192 -0.967,-0.39 -1.449,-0.593c-7.854,-3.322 -14.81,-8.012 -20.868,-14.07c-6.06,-6.059 -10.75,-13.015 -14.072,-20.87a64.708,64.708 0 0 1 -4.657,-17.345l-0.152,-0.003l-0.214,-0.017l-0.211,-0.025l-0.21,-0.037l-0.21,-0.047l-0.206,-0.057l-0.202,-0.066l-0.2,-0.078l-0.196,-0.087l-0.19,-0.096l-0.186,-0.105l-0.18,-0.114l-0.175,-0.123l-0.169,-0.132l-0.162,-0.139l-0.155,-0.148l-0.147,-0.155l-0.14,-0.162l-0.131,-0.168l-0.123,-0.175l-0.115,-0.18l-0.105,-0.187l-0.096,-0.19l-0.087,-0.196l-0.077,-0.2l-0.066,-0.202l-0.057,-0.206l-0.048,-0.209l-0.036,-0.21l-0.027,-0.213l-0.015,-0.213l-0.006,-0.214l0.025,-0.463l0.074,-0.458l0.123,-0.448l0.169,-0.433l0.215,-0.411l0.256,-0.387l0.297,-0.357l0.333,-0.323l2.317,-2.023c0.177,-8.381 1.891,-16.416 5.142,-24.104c3.323,-7.853 8.013,-14.81 14.072,-20.868c6.058,-6.058 13.014,-10.748 20.868,-14.07c8.13,-3.439 16.648,-5.158 25.553,-5.158c2.513,0 4.996,0.137 7.447,0.41l5.42,-4.732a71.614,71.614 0 0 0 -12.867,-1.15c-9.645,0 -18.873,1.864 -27.684,5.59l0,0.001zm77.974,15.241c-6.56,-6.562 -14.096,-11.642 -22.605,-15.241a71.543,71.543 0 0 0 -2.261,-0.912l-0.14,0.556l-0.712,2.815l-0.354,1.408l-0.144,0.566c0.495,0.195 0.989,0.397 1.48,0.606c7.854,3.322 14.81,8.012 20.869,14.07c6.058,6.058 10.748,13.014 14.07,20.868a64.721,64.721 0 0 1 4.546,16.488l2.191,0l0.213,0.006l0.214,0.015l0.212,0.027l0.211,0.036l0.208,0.047l0.206,0.057l0.203,0.067l0.2,0.077l0.195,0.087l0.191,0.095l0.186,0.106l0.18,0.115l0.175,0.123l0.168,0.13l0.163,0.14l0.155,0.149l0.147,0.154l0.139,0.161l0.132,0.17l0.034,0.048a70.086,70.086 0 0 0 -5.231,-20.429c-3.598,-8.509 -8.68,-16.044 -15.241,-22.605zm15.241,77.974c3.727,-8.811 5.59,-18.04 5.59,-27.685c0,-0.895 -0.016,-1.786 -0.048,-2.675l-0.102,0.194l-0.26,0.389l-0.3,0.358l-0.339,0.324l-1.1,0.948l-1.869,1.61l-1.496,1.288a64.75,64.75 0 0 1 -5.114,23.118c-3.322,7.854 -8.012,14.81 -14.07,20.869c-6.059,6.058 -13.015,10.748 -20.869,14.07c-8.13,3.439 -16.648,5.158 -25.554,5.158c-2.464,0 -4.9,-0.132 -7.305,-0.395l-1.344,1.157l-4.145,3.572a71.517,71.517 0 0 0 12.794,1.137c9.646,0 18.874,-1.864 27.685,-5.59c8.51,-3.599 16.044,-8.679 22.605,-15.24c6.562,-6.562 11.643,-14.097 15.241,-22.607z" />
  </g>
</svg>